<svg width="20" height="18" viewBox="0 0 20 18" fill="none" xmlns="http://www.w3.org/2000/svg">
<path d="M0 9.44602C0 12.2847 2.32384 13.4943 5.20548 13.4943H5.75342V17.2727L9.31507 13.4943H14.5205C17.4022 13.4943 20 12.2847 20 9.44602V3.77841C20 0.939744 17.4022 0 14.5205 0H5.20548C2.32384 0 0 0.939744 0 3.77841V9.44602ZM14.2255 5.24875C15.0438 5.24875 15.7099 5.90484 15.7099 6.71099C15.7099 7.51715 15.0438 8.17324 14.2255 8.17324C13.4068 8.17324 12.7408 7.51715 12.7408 6.71099C12.7408 5.90484 13.4071 5.24875 14.2255 5.24875ZM9.86301 5.24875C10.6816 5.24875 11.3477 5.90484 11.3477 6.71099C11.3477 7.51715 10.6816 8.17324 9.86301 8.17324C9.04438 8.17324 8.37836 7.51715 8.37836 6.71099C8.37836 5.90484 9.04438 5.24875 9.86301 5.24875ZM5.50055 5.24875C6.31918 5.24875 6.98521 5.90484 6.98521 6.71099C6.98521 7.51715 6.31918 8.17324 5.50055 8.17324C4.68219 8.17324 4.01616 7.51715 4.01616 6.71099C4.01616 5.90484 4.68192 5.24875 5.50055 5.24875Z" fill="#333641"/>
</svg>
