<svg width="35" height="35" viewBox="0 0 35 35" fill="none" xmlns="http://www.w3.org/2000/svg">
<path d="M17.4722 2.33704C13.2989 2.33704 9.5151 4.062 6.78855 6.78855C4.062 9.5151 2.33704 13.2989 2.33704 17.4722C2.33704 21.7011 4.062 25.4849 6.78855 28.2114C9.5151 30.938 13.2989 32.663 17.4722 32.663C21.7011 32.663 25.4849 30.938 28.2114 28.2114C30.938 25.4849 32.663 21.7011 32.663 17.4722C32.663 13.2989 30.938 9.5151 28.2114 6.78855C25.4849 4.062 21.7011 2.33704 17.4722 2.33704ZM5.11924 5.11924C8.29094 1.94754 12.6868 0 17.4722 0C22.3132 0 26.7091 1.94754 29.8808 5.11924C33.0525 8.29094 35 12.6868 35 17.4722C35 22.3132 33.0525 26.7091 29.8808 29.8808C26.7091 33.0525 22.3132 35 17.4722 35C12.6868 35 8.29094 33.0525 5.11924 29.8808C1.94754 26.7091 0 22.3132 0 17.4722C0 12.6868 1.94754 8.29094 5.11924 5.11924Z" fill="#333641"/>
<path d="M16.3036 5.45323C16.3036 4.84115 16.86 4.396 17.4721 4.396C18.1399 4.396 18.6963 4.84115 18.6963 5.45323V14.5788C19.0858 14.7458 19.4197 14.9683 19.6979 15.2466C20.31 15.8586 20.6438 16.6377 20.6438 17.4723C20.6438 18.3626 20.31 19.1416 19.6979 19.6981C19.1414 20.3101 18.3624 20.644 17.4721 20.644C17.0826 20.644 16.6375 20.5327 16.248 20.4214L11.9634 24.706C11.5182 25.1512 10.7392 25.1512 10.2941 24.706C9.84892 24.2609 9.84892 23.4818 10.2941 23.0367L14.5786 18.7521C14.4117 18.3626 14.3561 17.9175 14.3561 17.4723C14.3561 16.6377 14.6899 15.8586 15.2464 15.2466C15.5802 14.9683 15.9141 14.7458 16.3036 14.5788V5.45323Z" fill="#333641"/>
</svg>
