<svg width="12" height="10" viewBox="0 0 12 10" fill="none" xmlns="http://www.w3.org/2000/svg">
<path fill-rule="evenodd" clip-rule="evenodd" d="M7.5 8H11C11.5 8 12 7.41614 12 7V0.753481C12 0.33808 11.674 0 11.2719 0H0.728104C0.327195 0 0 0.337345 0 0.753481V6.98113C0 7.39653 0.5 8 1 8H4.5V9L3.45486 9.24528C3.25259 9.24528 3.09091 9.41423 3.09091 9.62264C3.09091 9.8325 3.25386 10 3.45486 10H8.54514C8.74741 10 8.90909 9.83105 8.90909 9.62264C8.90909 9.41278 8.74614 9.24528 8.54514 9.24528L7.5 9V8ZM11 6C11.0002 3.93208 11 1 11 1H1C1 1 1.00018 3.93211 1 6H11ZM6 7.35849C6.20083 7.35849 6.36364 7.18954 6.36364 6.98113C6.36364 6.77272 6.20083 6.60377 6 6.60377C5.79917 6.60377 5.63636 6.77272 5.63636 6.98113C5.63636 7.18954 5.79917 7.35849 6 7.35849ZM5 9H7V8H5V9Z" fill="#D8D8D8"/>
</svg>
