<svg width="16" height="18" viewBox="0 0 16 18" fill="none" xmlns="http://www.w3.org/2000/svg">
<path fill-rule="evenodd" clip-rule="evenodd" d="M13.9355 9.58915C13.1052 9.03362 12.1068 8.70968 11.0327 8.70968C8.14653 8.70968 5.80704 11.0488 5.80704 13.9357C5.80704 15.2735 6.30971 16.4938 7.13649 17.4182H1.16188C0.520262 17.4182 0 16.8997 0 16.2581V5.22581H5.22581V0H12.7748C13.4164 0 13.9355 0.520258 13.9355 1.16129V9.58915ZM4.06569 0V4.06452H0L4.06569 0ZM8.71026 13.2717V14.5993H10.3694V16.2581H11.6966V14.5993H13.3554V13.2717H11.6966V11.6129H10.3694V13.2717H8.71026ZM6.96833 13.9356C6.96833 11.6903 8.78793 9.87097 11.0327 9.87097C13.2777 9.87097 15.0974 11.6903 15.0974 13.9356C15.0974 16.1804 13.2777 18 11.0327 18C8.78793 18 6.96833 16.1804 6.96833 13.9356Z" fill="#333641"/>
</svg>
