<svg width="16" height="16" viewBox="0 0 16 16" fill="none" xmlns="http://www.w3.org/2000/svg">
<path d="M7.69148 10.8418C7.87459 11.025 8.17134 11.0249 8.35432 10.8418L10.3626 8.8335C10.5457 8.65051 10.5457 8.35364 10.3626 8.17065C10.1796 7.98755 9.88289 7.98755 9.69978 8.17065L8.49165 9.37878V5.9917C8.49165 5.73279 8.28169 5.52295 8.0229 5.52295C7.76399 5.52295 7.55415 5.73279 7.55415 5.9917V9.37878L6.34602 8.17065C6.16292 7.98755 5.86617 7.98755 5.68306 8.17065C5.50008 8.35364 5.50008 8.65051 5.68306 8.8335L7.69148 10.8418Z" fill="white"/>
<path d="M10.0312 12.0498H6.01451C5.75572 12.0498 5.54576 12.2596 5.54576 12.5186C5.54576 12.7773 5.75572 12.9873 6.01451 12.9873H10.0312C10.29 12.9873 10.5 12.7773 10.5 12.5186C10.5 12.2596 10.2901 12.0498 10.0312 12.0498Z" fill="white"/>
<path d="M12.5416 0H5.51245C5.38818 0 5.26892 0.0494385 5.18103 0.137329L2.16858 3.14978C2.08069 3.23767 2.03125 3.35693 2.03125 3.4812V14.5271C2.03125 15.3392 2.69202 16 3.50415 16H12.5416C13.3514 16 14.0145 15.3452 14.0145 14.5271V1.4729C14.0145 0.663086 13.3599 0 12.5416 0ZM5.54578 1.09827V2.97913C5.54578 3.27441 5.30566 3.51453 5.01038 3.51453H3.12952L5.54578 1.09827ZM13.077 14.5271C13.077 14.8187 12.8413 15.0625 12.5416 15.0625H3.50415C3.20898 15.0625 2.96875 14.8223 2.96875 14.5271V4.45215H5.01038C5.82251 4.45215 6.48328 3.79138 6.48328 2.97925V0.9375H12.5416C12.8334 0.9375 13.077 1.17334 13.077 1.4729V14.5271Z" fill="white"/>
</svg>
