<svg width="12" height="16" viewBox="0 0 12 16" fill="none" xmlns="http://www.w3.org/2000/svg">
<path d="M10.5104 0H3.4812C3.35693 0 3.23767 0.0494385 3.14978 0.137329L0.137329 3.14978C0.0494385 3.23767 0 3.35693 0 3.4812V14.5271C0 15.3392 0.660767 16 1.4729 16H10.5104C11.3202 16 11.9833 15.3452 11.9833 14.5271V1.4729C11.9833 0.663086 11.3286 0 10.5104 0ZM3.51453 1.09827V2.97913C3.51453 3.27441 3.27441 3.51453 2.97913 3.51453H1.09827L3.51453 1.09827ZM11.0458 14.5271C11.0458 14.8187 10.8101 15.0625 10.5104 15.0625H1.4729C1.17773 15.0625 0.9375 14.8223 0.9375 14.5271V4.45215H2.97913C3.79126 4.45215 4.45203 3.79138 4.45203 2.97925V0.9375H10.5104C10.8021 0.9375 11.0458 1.17334 11.0458 1.4729V14.5271Z" fill="white"/>
</svg>
