<svg width="16" height="16" viewBox="0 0 16 16" fill="none" xmlns="http://www.w3.org/2000/svg">
<path d="M14.5938 1.875H14.125V1.40625C14.125 0.630844 13.4942 0 12.7188 0H2.8125C2.03709 0 1.40625 0.630844 1.40625 1.40625V1.875C0.630844 1.875 0 2.50584 0 3.28125C0 4.05666 0.630844 4.6875 1.40625 4.6875V6.625C0.630844 6.625 0 7.25584 0 8.03125C0 8.80666 0.630844 9.4375 1.40625 9.4375V11.3125C0.630844 11.3125 0 11.9433 0 12.7188C0 13.4942 0.630844 14.125 1.40625 14.125V14.5938C1.40625 15.3692 2.03709 16 2.8125 16H12.7188C13.4942 16 14.125 15.3692 14.125 14.5938V14.125H14.5938C15.3692 14.125 16 13.4942 16 12.7188V3.28125C16 2.50584 15.3692 1.875 14.5938 1.875ZM0.9375 3.28125C0.9375 3.02278 1.14778 2.8125 1.40625 2.8125H3.28125C3.53972 2.8125 3.75 3.02278 3.75 3.28125C3.75 3.53972 3.53972 3.75 3.28125 3.75H1.40625C1.14778 3.75 0.9375 3.53972 0.9375 3.28125ZM0.9375 8.03125C0.9375 7.77278 1.14778 7.5625 1.40625 7.5625H3.28125C3.53972 7.5625 3.75 7.77278 3.75 8.03125C3.75 8.28972 3.53972 8.5 3.28125 8.5C3.13088 8.5 1.89694 8.5 1.40625 8.5C1.14778 8.5 0.9375 8.28972 0.9375 8.03125ZM1.40625 13.1875C1.14778 13.1875 0.9375 12.9772 0.9375 12.7188C0.9375 12.4603 1.14778 12.25 1.40625 12.25H3.28125C3.53972 12.25 3.75 12.4603 3.75 12.7188C3.75 12.9772 3.53972 13.1875 3.28125 13.1875H1.40625ZM13.1875 14.5938C13.1875 14.8522 12.9772 15.0625 12.7188 15.0625H2.8125C2.55403 15.0625 2.34375 14.8522 2.34375 14.5938V14.125H3.28125C4.05666 14.125 4.6875 13.4942 4.6875 12.7188C4.6875 11.9433 4.05666 11.3125 3.28125 11.3125H2.34375V9.4375H3.28125C4.05666 9.4375 4.6875 8.80666 4.6875 8.03125C4.6875 7.25584 4.05666 6.625 3.28125 6.625H2.34375V4.6875H3.28125C4.05666 4.6875 4.6875 4.05666 4.6875 3.28125C4.6875 2.50584 4.05666 1.875 3.28125 1.875H2.34375V1.40625C2.34375 1.14778 2.55403 0.9375 2.8125 0.9375H12.7188C12.9772 0.9375 13.1875 1.14778 13.1875 1.40625V14.5938ZM15.0625 12.7188C15.0625 12.9772 14.8522 13.1875 14.5938 13.1875H14.125V11.3125H15.0625V12.7188ZM15.0625 10.375H14.125V8.5H15.0625V10.375ZM15.0625 7.5625H14.125V5.625H15.0625V7.5625ZM15.0625 4.6875H14.125V2.8125H14.5938C14.8522 2.8125 15.0625 3.02278 15.0625 3.28125V4.6875Z" fill="white"/>
<path d="M9.90625 6.5625C10.6817 6.5625 11.3125 5.93166 11.3125 5.15625V4.21875C11.3125 3.44334 10.6817 2.8125 9.90625 2.8125C8.09697 2.8125 6.625 4.28447 6.625 6.09375V9.90625C6.625 11.7155 8.09697 13.1875 9.90625 13.1875C10.6817 13.1875 11.3125 12.5567 11.3125 11.7812V10.8438C11.3125 10.0683 10.6817 9.4375 9.90625 9.4375C9.64778 9.4375 9.4375 9.22722 9.4375 8.96875V7.03125C9.4375 6.77278 9.64778 6.5625 9.90625 6.5625ZM9.90625 10.375C10.1647 10.375 10.375 10.5853 10.375 10.8438V11.7812C10.375 12.0397 10.1647 12.25 9.90625 12.25C8.61391 12.25 7.5625 11.1986 7.5625 9.90625V6.09375C7.5625 4.80141 8.61391 3.75 9.90625 3.75C10.1647 3.75 10.375 3.96028 10.375 4.21875V5.15625C10.375 5.41472 10.1647 5.625 9.90625 5.625C9.13084 5.625 8.5 6.25584 8.5 7.03125V8.96875C8.5 9.74416 9.13084 10.375 9.90625 10.375Z" fill="white"/>
</svg>
