<svg width="18" height="18" viewBox="0 0 18 18" fill="none" xmlns="http://www.w3.org/2000/svg">
<g clip-path="url(#clip0)">
<path d="M13.4628 10.8663C13.1715 10.8663 12.9354 11.1024 12.9354 11.3937V16.9452H3.9375V7.56178H7.08522C7.3765 7.56178 7.61256 7.32571 7.61256 7.03444V3.88672H9.87918C10.1705 3.88672 10.4065 3.65065 10.4065 3.35937C10.4065 3.0681 10.1705 2.83203 9.87918 2.83203H7.08522C6.9744 2.83203 6.82539 2.86815 6.71237 2.98653L3.03731 6.66159C2.95189 6.74509 2.88281 6.88997 2.88281 7.03444V17.4725C2.88281 17.7638 3.11888 17.9999 3.41016 17.9999H13.4626C13.7539 17.9999 13.99 17.7638 13.99 17.4725V11.3937C13.9901 11.1024 13.7539 10.8663 13.4628 10.8663ZM6.55788 4.63255V6.50709H4.68333L6.55788 4.63255Z" fill="white"/>
<path d="M13.2025 6.271C13.4938 6.271 13.7298 6.03479 13.7298 5.74365C13.7298 5.45238 13.4938 5.21631 13.2025 5.21631C12.8045 5.21631 12.4682 4.95717 12.4682 4.65038V1.62048C12.4682 1.31383 12.8045 1.05469 13.2025 1.05469C13.6006 1.05469 13.9369 1.31383 13.9369 1.62048V2.77693C13.9369 3.06821 14.173 3.30428 14.4643 3.30428C14.7554 3.30428 14.9916 3.06821 14.9916 2.77693V1.62048C14.9916 0.72702 14.1891 0 13.2025 0C12.2161 0 11.4135 0.72702 11.4135 1.62048V4.65038C11.4135 5.54398 12.2161 6.271 13.2025 6.271Z" fill="white"/>
<path d="M13.3304 3.49316C13.0391 3.49316 12.803 3.72923 12.803 4.02051C12.803 4.31178 13.0391 4.54785 13.3304 4.54785C13.7283 4.54785 14.0647 4.80699 14.0647 5.11365V8.23885C14.0647 8.5455 13.7285 8.80464 13.3304 8.80464C12.9323 8.80464 12.5961 8.5455 12.5961 8.23885V6.88657C12.5961 6.59529 12.3599 6.35922 12.0687 6.35922C11.7775 6.35922 11.5414 6.59529 11.5414 6.88657V8.23885C11.5414 9.13231 12.3439 9.85933 13.3304 9.85933C14.3168 9.85933 15.1194 9.13231 15.1194 8.23885V5.11365C15.1194 4.22018 14.3168 3.49316 13.3304 3.49316Z" fill="white"/>
</g>
<defs>
<clipPath id="clip0">
<rect width="18" height="18" fill="white"/>
</clipPath>
</defs>
</svg>
