<svg width="166" height="32" viewBox="0 0 166 32" fill="none" xmlns="http://www.w3.org/2000/svg">
<g clip-path="url(#clip0)">
<path d="M12.9356 0C9.25155 0 6.26489 2.98649 6.26489 6.67035C6.26489 10.3545 9.25155 13.3409 12.9356 13.3409C16.6193 13.3409 19.6058 10.3545 19.6058 6.67035C19.6059 2.98649 16.6193 0 12.9356 0ZM12.9356 12.4995C9.72138 12.4995 7.10629 9.88438 7.10629 6.67035C7.10629 3.45632 9.72138 0.841235 12.9356 0.841235C16.1498 0.841235 18.7644 3.45632 18.7644 6.67035C18.7644 9.88455 16.1498 12.4995 12.9356 12.4995Z" fill="url(#paint0_linear)"/>
<path fill-rule="evenodd" clip-rule="evenodd" d="M0 5.93408C0 5.93408 6.39787 6.77565 12.8303 6.77565C19.3328 6.77565 25.8708 5.93408 25.8708 5.93408C25.8708 5.93408 25.4507 12.5075 25.4507 19.0275C25.4507 25.4421 25.8708 31.8051 25.8708 31.8051C25.8708 31.8051 19.6804 31.3844 13.3565 31.3844C6.75167 31.3844 0 31.8051 0 31.8051C0 31.8051 0.420701 25.0179 0.420701 18.3963C0.420701 12.0902 0 5.93408 0 5.93408Z" fill="#FEB820"/>
<path d="M47.1785 26.3563C45.1006 26.3563 43.4123 25.709 42.1605 24.4325C40.9141 23.1617 40.2382 21.3804 40.1519 19.1383L40.1413 17.8156C40.1413 16.2768 40.4194 14.9125 40.9681 13.7583C41.5238 12.5891 42.3319 11.6756 43.3704 11.0427C44.4057 10.4122 45.6167 10.0928 46.9696 10.0928C48.9365 10.0928 50.4948 10.555 51.6009 11.4665C52.7153 12.3854 53.3733 13.7628 53.5561 15.561L53.5937 15.9307H49.3964L49.3539 15.6438C49.2411 14.8823 49.0048 14.3414 48.6515 14.0364C48.2982 13.7316 47.7746 13.5769 47.0951 13.5769C46.2905 13.5769 45.6859 13.9081 45.2463 14.5892C44.7821 15.3085 44.5434 16.3694 44.5369 17.7419V18.6568C44.5369 20.0947 44.7791 21.1788 45.257 21.8789C45.7136 22.5474 46.4242 22.8724 47.4295 22.8724C48.2182 22.8724 48.8209 22.7188 49.2248 22.4155V20.555H46.6742V17.3731H53.5679V24.0664L53.4813 24.1621C52.8812 24.8265 52.0011 25.3657 50.8655 25.7646C49.747 26.1571 48.5065 26.3563 47.1785 26.3563Z" fill="white"/>
<path d="M61.6143 26.3563C60.2629 26.3563 59.0444 26.0409 57.9929 25.4188C56.9377 24.7945 56.1049 23.8915 55.5174 22.735C54.9359 21.5905 54.6265 20.2625 54.5977 18.7881V17.9277C54.5977 16.3976 54.885 15.0257 55.4515 13.8503C56.0244 12.661 56.8592 11.7285 57.9323 11.0789C59.0017 10.4314 60.2336 10.103 61.5934 10.103C62.9387 10.103 64.1582 10.4279 65.2177 11.0683C66.279 11.71 67.1147 12.6343 67.702 13.8154C68.2834 14.9852 68.5818 16.3401 68.5889 17.8427V18.5421C68.5889 20.0649 68.2999 21.4353 67.7299 22.6145C67.1531 23.8075 66.3202 24.7397 65.2547 25.3855C64.192 26.0298 62.9673 26.3563 61.6143 26.3563ZM61.5934 13.6392C59.955 13.6392 59.1111 14.8826 59.0138 17.4406L59.0036 18.5453C59.0036 19.9581 59.2364 21.0517 59.6955 21.7924C60.1283 22.4911 60.756 22.8307 61.6141 22.8307C62.4253 22.8307 63.0332 22.4966 63.4728 21.8094C63.9373 21.0829 64.1762 20.0041 64.1829 18.603V17.9069C64.1829 16.4728 63.9462 15.3793 63.4787 14.6567C63.0358 13.9721 62.4191 13.6392 61.5934 13.6392Z" fill="white"/>
<path d="M76.3946 26.3563C75.0432 26.3563 73.8248 26.0409 72.7732 25.4188C71.7181 24.7945 70.8852 23.8915 70.2978 22.735C69.7162 21.5905 69.4068 20.2625 69.3782 18.7881V17.9277C69.3782 16.3976 69.6654 15.0257 70.2318 13.8503C70.8048 12.661 71.6395 11.7285 72.7126 11.0789C73.7822 10.4314 75.0141 10.103 76.3737 10.103C77.7192 10.103 78.9387 10.4279 79.998 11.0683C81.0593 11.71 81.8953 12.6343 82.4825 13.8154C83.0639 14.9852 83.3622 16.3401 83.3694 17.8427V18.5421C83.3694 20.0649 83.0802 21.4353 82.5103 22.6145C81.9334 23.8075 81.1007 24.7397 80.035 25.3855C78.9723 26.0298 77.7476 26.3563 76.3946 26.3563ZM76.3737 13.6392C74.7354 13.6392 73.8916 14.8826 73.7943 17.4406L73.7841 18.5453C73.7841 19.9581 74.0167 21.0517 74.4758 21.7924C74.9087 22.4911 75.5363 22.8307 76.3944 22.8307C77.2056 22.8307 77.8138 22.4966 78.2532 21.8094C78.7178 21.0829 78.9567 20.0041 78.9634 18.603V17.9069C78.9634 16.4728 78.7265 15.3793 78.259 14.6567C77.8163 13.9721 77.1994 13.6392 76.3737 13.6392Z" fill="white"/>
<path d="M84.587 26.1481V10.3115H89.8266C91.2242 10.3115 92.5007 10.6328 93.6206 11.2667C94.7444 11.9031 95.6339 12.8131 96.2643 13.9715C96.8911 15.123 97.2124 16.4292 97.2198 17.8532V18.5529C97.2198 19.9908 96.9093 21.3002 96.2967 22.4448C95.6807 23.5961 94.8007 24.5097 93.6812 25.1598C92.5647 25.8087 91.3036 26.1412 89.9334 26.1483H89.9324H84.587V26.1481ZM89.8685 22.664C90.8176 22.664 91.5228 22.3415 92.0241 21.6782C92.5409 20.9952 92.8032 19.9434 92.8032 18.5527V17.8965C92.8032 16.5132 92.5413 15.467 92.0247 14.7871C91.5232 14.1269 90.804 13.8059 89.8266 13.8059H88.9305V22.664H89.8685Z" fill="white"/>
<path d="M98.4268 26.1481V10.3115H102.77V22.664H109.157V26.1481H98.4268Z" fill="white"/>
<path d="M111.012 26.1481V20.4446L105.911 10.3115H110.621L113.209 16.3708L115.788 10.3115H120.52L115.408 20.4448V26.1481H111.012Z" fill="white"/>
<path d="M120.423 22.4062C120.98 22.4062 121.443 22.5712 121.813 22.9009C122.182 23.2308 122.367 23.6527 122.367 24.1663C122.367 24.6804 122.182 25.102 121.813 25.4317C121.444 25.7617 120.98 25.9265 120.423 25.9265C119.858 25.9265 119.393 25.7599 119.027 25.4265C118.661 25.0931 118.478 24.6732 118.478 24.1661C118.478 23.6594 118.661 23.2392 119.027 22.9059C119.393 22.5727 119.858 22.4062 120.423 22.4062Z" fill="#FEB820"/>
<path d="M124.538 26.1481V10.3115H130.948C132.158 10.3115 133.246 10.5381 134.183 10.9849C135.133 11.4382 135.881 12.0941 136.404 12.9335C136.926 13.772 137.192 14.734 137.192 15.7927C137.192 17.3688 136.615 18.6486 135.477 19.5967C134.357 20.5299 132.812 21.0029 130.886 21.0029H128.882V26.1481H124.538ZM130.948 17.5085C131.566 17.5085 132.035 17.3611 132.341 17.0701C132.647 16.7794 132.796 16.3683 132.796 15.8135C132.796 15.1857 132.636 14.704 132.308 14.3407C131.988 13.9869 131.555 13.8119 130.987 13.8059H128.881V17.5085H130.948Z" fill="#FEB820"/>
<path d="M146.942 26.1481L144.256 20.7842H142.815V26.1481H138.472V10.3115H144.799C146.672 10.3115 148.167 10.7381 149.241 11.5799C150.339 12.4411 150.895 13.6677 150.895 15.2253C150.895 16.3377 150.662 17.2793 150.202 18.0235C149.792 18.6877 149.173 19.2439 148.359 19.6797L151.418 25.5742V26.1481H146.942ZM144.799 17.3002C145.397 17.3002 145.845 17.1506 146.129 16.8555C146.421 16.552 146.563 16.1277 146.563 15.5582C146.563 14.9881 146.419 14.5604 146.122 14.2496C145.831 13.9441 145.397 13.7955 144.799 13.7955H142.815V17.3002H144.799Z" fill="#FEB820"/>
<path d="M159.025 26.3563C157.674 26.3563 156.456 26.0409 155.404 25.4188C154.349 24.7945 153.516 23.8915 152.928 22.735C152.347 21.5905 152.038 20.2625 152.009 18.7881V17.9277C152.009 16.3976 152.296 15.0257 152.863 13.8503C153.436 12.661 154.27 11.7285 155.343 11.0789C156.413 10.4314 157.645 10.103 159.005 10.103C160.35 10.103 161.569 10.4279 162.629 11.0683C163.69 11.71 164.526 12.6343 165.113 13.8154C165.695 14.9852 165.993 16.3401 166 17.8427V18.5421C166 20.0649 165.711 21.4353 165.141 22.6145C164.564 23.8075 163.731 24.7397 162.666 25.3855C161.603 26.0298 160.378 26.3563 159.025 26.3563ZM159.005 13.6392C157.366 13.6392 156.522 14.8826 156.425 17.4406L156.415 18.5453C156.415 19.9581 156.648 21.0517 157.107 21.7924C157.539 22.4911 158.167 22.8307 159.025 22.8307C159.836 22.8307 160.444 22.4966 160.884 21.8094C161.348 21.0829 161.587 20.0041 161.594 18.603V17.9069C161.594 16.4728 161.357 15.3793 160.89 14.6567C160.447 13.9721 159.83 13.6392 159.005 13.6392Z" fill="#FEB820"/>
<path d="M15.0465 21.3485C14.4732 21.5857 13.9196 21.6846 13.3462 21.6846C11.3493 21.6846 10.0444 20.3006 10.0444 18.2246C10.0444 16.0893 11.3493 14.7646 13.4055 14.7646C14.6314 14.7646 15.6397 15.2787 16.5096 16.287L19.4951 13.6574C18.0913 11.9373 15.8967 10.9883 13.1683 10.9883C8.60112 10.9883 5.33887 13.9738 5.33887 18.2246C5.33887 22.4754 8.60112 25.4609 13.0694 25.4609C15.1059 25.4609 17.4191 24.848 19.0997 23.7012V17.8489H15.0465V21.3485Z" fill="black"/>
<path d="M20.5266 23.4865V24.3672H22.3558V23.7505H21.9063V23.4865C21.9063 22.977 21.6398 22.6529 21.2164 22.6529C20.7931 22.6529 20.5266 22.977 20.5266 23.4865ZM21.4307 23.5257V23.7505H21.0022V23.5257C21.0022 23.3559 21.0832 23.2749 21.2164 23.2749C21.3497 23.2749 21.4307 23.3559 21.4307 23.5257ZM22.3558 21.3558V20.6973L21.7913 21.0814C21.679 20.8619 21.4804 20.7365 21.2164 20.7365C20.7931 20.7365 20.5266 21.0605 20.5266 21.5701V22.4507H22.3558V21.834H21.8959V21.6667L22.3558 21.3558ZM21.2164 21.3584C21.3497 21.3584 21.4307 21.4394 21.4307 21.6093V21.834H21.0022V21.6093C21.0022 21.4394 21.0832 21.3584 21.2164 21.3584ZM22.3976 19.5446C22.3976 18.9488 21.9952 18.5124 21.4412 18.5124C20.8872 18.5124 20.4848 18.9488 20.4848 19.5446C20.4848 20.1404 20.8872 20.5768 21.4412 20.5768C21.9952 20.5768 22.3976 20.1404 22.3976 19.5446ZM21.8985 19.5446C21.8985 19.7719 21.726 19.9548 21.4412 19.9548C21.1563 19.9548 20.9839 19.7719 20.9839 19.5446C20.9839 19.3172 21.1563 19.1343 21.4412 19.1343C21.726 19.1343 21.8985 19.3172 21.8985 19.5446Z" fill="black"/>
</g>
<defs>
<linearGradient id="paint0_linear" x1="12.9355" y1="13.3409" x2="12.9355" y2="0" gradientUnits="userSpaceOnUse">
<stop offset="0.5053" stop-color="#AD8021"/>
<stop offset="0.6421" stop-color="#FEB820"/>
</linearGradient>
<clipPath id="clip0">
<rect width="166" height="31.8586" fill="white"/>
</clipPath>
</defs>
</svg>
