<svg width="12" height="12" viewBox="0 0 12 12" fill="none" xmlns="http://www.w3.org/2000/svg">
<path d="M6.00001 0C2.69161 0 1.61253e-05 2.4224 1.61253e-05 5.39999C1.61253e-05 6.44079 0.329216 7.44899 0.953615 8.32079C0.835415 9.62819 0.518615 10.5988 0.058616 11.0586C-0.00218387 11.1194 -0.0173839 11.2124 0.0210161 11.2892C0.0550161 11.3578 0.125016 11.4 0.200016 11.4C0.209216 11.4 0.218416 11.3994 0.227816 11.398C0.308816 11.3866 2.19041 11.1158 3.55141 10.3302C4.32421 10.642 5.14741 10.8 6.00001 10.8C9.3084 10.8 12 8.37759 12 5.39999C12 2.4224 9.3084 0 6.00001 0ZM3.20001 6.19999C2.75881 6.19999 2.40001 5.84119 2.40001 5.39999C2.40001 4.95879 2.75881 4.59999 3.20001 4.59999C3.64121 4.59999 4.00001 4.95879 4.00001 5.39999C4.00001 5.84119 3.64121 6.19999 3.20001 6.19999ZM6.00001 6.19999C5.55881 6.19999 5.20001 5.84119 5.20001 5.39999C5.20001 4.95879 5.55881 4.59999 6.00001 4.59999C6.44121 4.59999 6.80001 4.95879 6.80001 5.39999C6.80001 5.84119 6.44121 6.19999 6.00001 6.19999ZM8.8 6.19999C8.3588 6.19999 8.00001 5.84119 8.00001 5.39999C8.00001 4.95879 8.3588 4.59999 8.8 4.59999C9.2412 4.59999 9.6 4.95879 9.6 5.39999C9.6 5.84119 9.2412 6.19999 8.8 6.19999Z" fill="#888B93"/>
</svg>
