<svg width="8" height="12" viewBox="0 0 8 12" fill="none" xmlns="http://www.w3.org/2000/svg">
<path fill-rule="evenodd" clip-rule="evenodd" d="M0.945203 0H6.5548C7.076 0 8 0 8 0.943952V11.056C8 11.5766 7.5212 12 7 12H1C0.478797 12 0 11.5766 0 11.056V0.943952C0 0.423439 0.423999 0 0.945203 0ZM6.5 1H1.3904C1.30771 1 1 1 1 1.5V9.03262H7V1.5C7 1 6.5 1 6.5 1ZM4.5 10C4.77614 10 5 10.2239 5 10.5C5 10.7761 4.77614 11 4.5 11H3.5C3.22386 11 3 10.7761 3 10.5C3 10.2239 3.22386 10 3.5 10H4.5Z" fill="#D8D8D8"/>
</svg>
