<svg width="18" height="18" viewBox="0 0 18 18" fill="none" xmlns="http://www.w3.org/2000/svg">
<path d="M9 0C4.04277 0 0 4.0428 0 9.00003C0 13.9572 4.04277 18 9 18C13.9572 18 18 13.9572 18 9.00003C18 4.0428 13.9572 0 9 0ZM9 2.25C12.7412 2.25 15.75 5.25882 15.75 9.00003C15.75 12.7412 12.7412 15.75 9 15.75C5.25876 15.75 2.25 12.7412 2.25 9.00003C2.25 5.25882 5.25876 2.25 9 2.25ZM7.25977 5.34375C6.83904 5.35388 6.47949 5.71199 6.46875 6.22266V11.7774C6.48309 12.4582 7.12502 12.8661 7.69042 12.542L12.2344 9.75589C12.482 9.60379 12.6562 9.32654 12.6562 9.00003C12.6562 8.67353 12.482 8.39622 12.2344 8.24417L7.69042 5.45802C7.54906 5.377 7.4 5.34043 7.25977 5.34375Z" fill="#333641"/>
</svg>
