<svg width="17" height="20" viewBox="0 0 17 20" fill="none" xmlns="http://www.w3.org/2000/svg">
<path d="M4.87576 8.47961C5.05796 9.66393 5.97311 11.1712 7.47628 11.7013C8.09329 11.9166 8.76827 11.9208 9.38527 11.6971C10.8636 11.163 11.8077 9.65979 11.9941 8.47961C12.1928 8.46305 12.4537 8.1856 12.7353 7.18763C13.1204 5.82525 12.7105 5.62235 12.3626 5.65547C12.4289 5.46913 12.4786 5.27864 12.5117 5.09644C13.0997 1.5642 11.3605 1.44411 11.3605 1.44411C11.3605 1.44411 11.0706 0.889221 10.3128 0.470983C9.80351 0.168693 9.0954 -0.0632015 8.16368 0.0154768C7.86139 0.0278997 7.57567 0.0900142 7.3065 0.176975C6.9628 0.292922 6.64809 0.462701 6.36236 0.661468C6.01452 0.880939 5.68325 1.15424 5.39338 1.46481C4.93373 1.93688 4.52378 2.54561 4.34571 3.3034C4.19664 3.87072 4.22977 4.46287 4.354 5.10058C4.38712 5.28693 4.43682 5.47327 4.50307 5.65961C4.15523 5.62649 3.74527 5.82939 4.13038 7.19177C4.41611 8.1856 4.67699 8.46305 4.87576 8.47961Z" fill="#333641"/>
<path d="M15.2655 13.1137C13.1495 12.5754 11.431 11.3662 11.431 11.3662L10.0893 15.6107L9.83669 16.4099L9.83255 16.3975L9.61308 17.0766L8.90498 15.0682C10.6442 12.6416 8.553 12.6665 8.43705 12.6706C8.3211 12.6665 6.22991 12.6416 7.96912 15.0682L7.26101 17.0766L7.04154 16.3975L7.0374 16.4099L6.7848 15.6107L5.43899 11.3662C5.43899 11.3662 3.72049 12.5754 1.60445 13.1137C0.0267459 13.5154 -0.0477915 15.3374 0.014323 16.236C0.014323 16.236 0.105424 17.4576 0.196526 17.9959C0.196526 17.9959 3.2774 19.996 8.43705 20.0001C13.5967 20.0001 16.6776 17.9959 16.6776 17.9959C16.7687 17.4576 16.8598 16.236 16.8598 16.236C16.9177 15.3374 16.8432 13.5154 15.2655 13.1137Z" fill="#333641"/>
</svg>
