<svg width="15" height="16" viewBox="0 0 15 16" fill="none" xmlns="http://www.w3.org/2000/svg">
<path fill-rule="evenodd" clip-rule="evenodd" d="M7.49902 16.001C3.34302 15.928 -0.000976562 12.737 -0.000976562 8.81098C-0.000976562 5.89598 1.84402 3.38598 4.49502 2.25698C4.49502 2.25698 5.39802 1.87398 5.39802 2.76698C5.39802 3.65998 4.50302 4.25998 4.49202 4.25798C2.91202 5.22798 1.86802 6.90498 1.86802 8.81098C1.86802 11.766 4.37602 14.17 7.49902 14.243C10.622 14.17 13.129 11.766 13.129 8.81098C13.129 6.90498 12.085 5.22798 10.505 4.25798C10.494 4.25998 9.60002 3.65998 9.60002 2.76698C9.60002 1.87398 10.503 2.25698 10.503 2.25698C13.154 3.38598 14.998 5.89598 14.998 8.81098C14.998 12.737 11.654 15.927 7.49902 16.001ZM7.55102 8.69498C6.71102 8.69498 6.44902 8.11598 6.44902 7.88998V4.34798V0.805977C6.44902 0.579977 6.71102 0.000976562 7.55102 0.000976562C8.39202 0.000976562 8.54902 0.579977 8.54902 0.805977V4.34798V7.88998C8.54902 8.11598 8.39202 8.69498 7.55102 8.69498Z" fill="#666666"/>
</svg>
