<svg width="16" height="15" viewBox="0 0 16 15" fill="none" xmlns="http://www.w3.org/2000/svg">
<path fill-rule="evenodd" clip-rule="evenodd" d="M8.49805 15C4.35605 15 0.998047 11.643 0.998047 7.50098C0.998047 3.35798 4.35605 0.000976562 8.49805 0.000976562C12.64 0.000976562 15.998 3.35798 15.998 7.50098C15.998 11.643 12.64 15 8.49805 15ZM8.52405 1.56298C5.23005 1.56298 2.56005 4.23298 2.56005 7.52698C2.56005 10.82 5.23005 13.49 8.52405 13.49C11.817 13.49 14.487 10.82 14.487 7.52698C14.487 4.23298 11.817 1.56298 8.52405 1.56298ZM10.487 10.815L8.49805 8.82598L6.50905 10.815L5.18305 9.48898L7.17205 7.50098L5.18305 5.51198L6.50905 4.18598L8.49805 6.17498L10.487 4.18598L11.812 5.51198L9.82405 7.50098L11.812 9.48898L10.487 10.815Z" fill="#666666"/>
</svg>
