<svg width="18" height="18" viewBox="0 0 18 18" fill="none" xmlns="http://www.w3.org/2000/svg">
<path d="M17.7665 4.96857C17.6103 4.59374 17.4226 4.29677 17.2038 4.07808L13.9225 0.796784C13.704 0.578214 13.407 0.390634 13.032 0.23429C12.6572 0.0781104 12.3134 0 12.0009 0H1.12588C0.813481 0 0.547791 0.109305 0.329016 0.32808C0.110241 0.546732 0.000976562 0.812381 0.000976562 1.12495V16.8751C0.000976562 17.1877 0.110241 17.4534 0.329016 17.672C0.547791 17.8906 0.813481 18 1.12588 18H16.8759C17.1886 18 17.4542 17.8906 17.6729 17.672C17.8915 17.4534 18.0008 17.1877 18.0008 16.8751V6.00001C18.0008 5.68741 17.9227 5.34369 17.7665 4.96857ZM7.50097 1.87486C7.50097 1.77331 7.53812 1.68559 7.61237 1.61122C7.68654 1.53717 7.77446 1.50007 7.87601 1.50007H10.1261C10.2274 1.50007 10.3153 1.53709 10.3895 1.61122C10.4639 1.68559 10.501 1.77331 10.501 1.87486V5.62489C10.501 5.72661 10.4637 5.81445 10.3895 5.8887C10.3153 5.9627 10.2274 5.99985 10.1261 5.99985H7.87601C7.77446 5.99985 7.6865 5.96283 7.61237 5.8887C7.53812 5.81432 7.50097 5.72661 7.50097 5.62489V1.87486ZM13.5011 16.5001H4.50084V12H13.5011V16.5001ZM16.5013 16.5001H15.001H15.0007V11.6249C15.0007 11.3123 14.8914 11.0468 14.6727 10.828C14.454 10.6093 14.1884 10.4998 13.876 10.4998H4.12589C3.81336 10.4998 3.54767 10.6093 3.3289 10.828C3.11025 11.0467 3.00086 11.3123 3.00086 11.6249V16.5001H1.50084V1.4999H3.00082V6.37497C3.00082 6.68753 3.11008 6.95306 3.32886 7.17183C3.54763 7.39049 3.81332 7.49991 4.12585 7.49991H10.8761C11.1885 7.49991 11.4544 7.39049 11.6728 7.17183C11.8914 6.95318 12.0009 6.68753 12.0009 6.37497V1.4999C12.1181 1.4999 12.2703 1.53889 12.458 1.617C12.6457 1.69507 12.7784 1.77318 12.8565 1.8513L16.1497 5.14441C16.2278 5.22252 16.3059 5.35744 16.384 5.54875C16.4624 5.74023 16.5013 5.89067 16.5013 6.00001V16.5001H16.5013Z" fill="white"/>
</svg>
