<svg width="16" height="16" viewBox="0 0 16 16" fill="none" xmlns="http://www.w3.org/2000/svg">
<path d="M9.26315 8.42063C8.79755 8.42063 8.42103 8.79763 8.42103 9.26318C8.42103 9.72788 8.79846 10.1053 9.26315 10.1053C9.72784 10.1053 10.1053 9.72788 10.1053 9.26318C10.1053 8.79763 9.7287 8.42063 9.26315 8.42063ZM6.73679 7.57894C7.2017 7.57894 7.57891 7.20172 7.57891 6.73682C7.57891 6.27159 7.2017 5.8948 6.73679 5.8948C6.272 5.8948 5.89478 6.27159 5.89478 6.73682C5.89478 7.20172 6.272 7.57894 6.73679 7.57894ZM9.26315 5.8948C8.79755 5.8948 8.42103 6.27159 8.42103 6.73682C8.42103 7.20172 8.7976 7.57894 9.26315 7.57894C9.72784 7.57894 10.1053 7.20172 10.1053 6.73682C10.1053 6.27159 9.7287 5.8948 9.26315 5.8948ZM10.1053 1.68414H5.89478V3.36838H10.1053V1.68414ZM11.7896 7.57894C12.254 7.57894 12.6317 7.20172 12.6317 6.73682C12.6317 6.27159 12.2549 5.8948 11.7896 5.8948C11.324 5.8948 10.9474 6.27159 10.9474 6.73682C10.9474 7.20172 11.3249 7.57894 11.7896 7.57894ZM11.7896 10.1053C12.254 10.1053 12.6317 9.72788 12.6317 9.26318C12.6317 8.79763 12.2549 8.42106 11.7896 8.42106C11.324 8.42106 10.9474 8.79763 10.9474 9.26318C10.9474 9.72788 11.3249 10.1053 11.7896 10.1053ZM6.73679 10.1053C7.2017 10.1053 7.57891 9.72788 7.57891 9.26318C7.57891 8.79763 7.20213 8.42063 6.73679 8.42063C6.27157 8.42063 5.89478 8.79763 5.89478 9.26318C5.89478 9.72788 6.272 10.1053 6.73679 10.1053ZM4.21054 12.6317C4.67534 12.6317 5.05266 12.2541 5.05266 11.7896C5.05266 11.3241 4.67534 10.9475 4.21054 10.9475C3.74532 10.9475 3.36842 11.3241 3.36842 11.7896C3.36842 12.2541 3.74569 12.6317 4.21054 12.6317ZM14.3157 1.68414H13.4739V3.36838H14.3157V14.3157H1.68424V3.36844H2.52625V1.68414H1.68424C0.754105 1.68414 0 2.43798 0 3.36844V14.3154C0 15.2461 0.754105 16.0001 1.68424 16.0001H14.3157C15.2459 16.0001 15.9999 15.246 15.9999 14.3154V3.36844C15.9999 2.43798 15.2459 1.68414 14.3157 1.68414ZM4.21054 10.1053C4.67534 10.1053 5.05266 9.72788 5.05266 9.26318C5.05266 8.79763 4.67534 8.42063 4.21054 8.42063C3.74532 8.42063 3.36842 8.79763 3.36842 9.26318C3.36842 9.72788 3.74569 10.1053 4.21054 10.1053ZM4.21054 7.57894C4.67534 7.57894 5.05266 7.20172 5.05266 6.73682C5.05266 6.27159 4.67534 5.8948 4.21054 5.8948C3.74532 5.8948 3.36842 6.27159 3.36842 6.73682C3.36842 7.20172 3.74569 7.57894 4.21054 7.57894ZM6.73679 12.6317C7.2017 12.6317 7.57891 12.2541 7.57891 11.7896C7.57891 11.3241 7.2017 10.9475 6.73679 10.9475C6.272 10.9475 5.89478 11.3241 5.89478 11.7896C5.89478 12.2541 6.272 12.6317 6.73679 12.6317ZM4.21054 3.36844C4.67534 3.36844 5.05266 2.99122 5.05266 2.52631V0.842176C5.05266 0.376785 4.67577 0 4.21054 0C3.74569 0 3.36842 0.376785 3.36842 0.842122V2.52626C3.36842 2.99122 3.74569 3.36844 4.21054 3.36844ZM11.7896 3.36844C12.254 3.36844 12.6317 2.99122 12.6317 2.52631V0.842176C12.6317 0.376785 12.254 0 11.7896 0C11.324 0 10.9474 0.376785 10.9474 0.842122V2.52626C10.9474 2.99122 11.3249 3.36844 11.7896 3.36844Z" fill="#C4C4C4"/>
</svg>
