<svg width="16" height="16" viewBox="0 0 16 16" fill="none" xmlns="http://www.w3.org/2000/svg">
<path d="M8 0C6.41775 0 4.87103 0.469191 3.55544 1.34824C2.23985 2.22729 1.21447 3.47672 0.608967 4.93853C0.00346645 6.40034 -0.15496 8.00887 0.153721 9.56072C0.462403 11.1126 1.22433 12.538 2.34315 13.6569C3.46197 14.7757 4.88743 15.5376 6.43928 15.8463C7.99113 16.155 9.59966 15.9965 11.0615 15.391C12.5233 14.7855 13.7727 13.7602 14.6518 12.4446C15.5308 11.129 16 9.58225 16 8C15.9981 5.87885 15.1546 3.84513 13.6547 2.34525C12.1549 0.845376 10.1211 0.00190836 8 0ZM8 14.5586C6.70284 14.5586 5.43481 14.1739 4.35626 13.4532C3.27771 12.7326 2.43709 11.7083 1.94069 10.5098C1.44428 9.31143 1.3144 7.99272 1.56747 6.72049C1.82053 5.44825 2.44517 4.27963 3.3624 3.3624C4.27963 2.44517 5.44826 1.82053 6.72049 1.56746C7.99273 1.3144 9.31143 1.44428 10.5099 1.94068C11.7083 2.43708 12.7326 3.27771 13.4532 4.35626C14.1739 5.43481 14.5586 6.70284 14.5586 8C14.5567 9.73885 13.865 11.4059 12.6355 12.6355C11.4059 13.865 9.73885 14.5566 8 14.5586Z" fill="#4A76A8"/>
<path d="M8.72025 7.70219V4.87697C8.72025 4.68582 8.64432 4.50251 8.50916 4.36734C8.37399 4.23218 8.19068 4.15625 7.99953 4.15625C7.80838 4.15625 7.62506 4.23218 7.4899 4.36734C7.35474 4.50251 7.27881 4.68582 7.27881 4.87697V8.00009C7.27898 8.19118 7.35502 8.37437 7.49022 8.5094L9.04938 10.0686C9.186 10.1959 9.36671 10.2652 9.55342 10.2619C9.74014 10.2586 9.91829 10.1829 10.0503 10.0509C10.1824 9.91885 10.258 9.7407 10.2613 9.55399C10.2646 9.36727 10.1953 9.18657 10.068 9.04994L8.72025 7.70219Z" fill="#4A76A8"/>
</svg>
