<svg width="16" height="16" viewBox="0 0 16 16" fill="none" xmlns="http://www.w3.org/2000/svg">
<path fill-rule="evenodd" clip-rule="evenodd" d="M15.792 2.18975L14.762 3.22075L12.696 1.15175L13.579 0.26775C13.936 -0.08925 14.514 -0.08925 14.87 0.26775L15.792 1.19075C16.068 1.46675 16.068 1.91275 15.792 2.18975ZM14.224 3.75875L13.151 4.83375L13.278 4.96075C13.998 6.08075 14.398 7.36075 14.398 8.80075C14.398 12.8007 11.199 15.9997 7.199 15.9997C3.199 15.9997 0 12.8007 0 8.80075C0 4.80075 3.199 1.60075 7.199 1.60075C8.639 1.60075 9.919 2.00075 11.039 2.72075L11.084 2.76575L12.158 1.68975L14.224 3.75875ZM7.199 3.20075C4.079 3.20075 1.6 5.68075 1.6 8.80075C1.6 11.9207 4.079 14.3997 7.199 14.3997C10.319 14.3997 12.798 11.9207 12.798 8.80075C12.798 7.76175 12.514 6.79375 12.023 5.96375L8.994 8.99875L6.929 6.92875L9.932 3.91975C9.119 3.46175 8.184 3.20075 7.199 3.20075ZM6.132 10.1177C5.963 10.1597 5.81 10.0077 5.848 9.83775L6.37 7.48875L8.435 9.55875L6.132 10.1177Z" fill="#666666"/>
</svg>
