<svg width="17" height="15" viewBox="0 0 17 15" fill="none" xmlns="http://www.w3.org/2000/svg">
<path d="M7.73073 14.3066C7.99419 14.3067 8.25509 14.2549 8.49853 14.1541C8.74196 14.0533 8.96317 13.9056 9.14951 13.7194L13.1487 9.72017C13.3351 9.53388 13.4829 9.3127 13.5838 9.06926C13.6847 8.82582 13.7366 8.5649 13.7366 8.30139C13.7366 8.03788 13.6847 7.77695 13.5838 7.53351C13.4829 7.29007 13.3351 7.06889 13.1487 6.88261L7.55748 1.2932C7.36303 1.09947 7.13108 0.947458 6.87584 0.846489C6.62059 0.745519 6.34742 0.697713 6.07306 0.705997L1.17663 0.866476C0.944536 0.873326 0.7238 0.968462 0.559445 1.13248C0.395091 1.29649 0.2995 1.51703 0.292171 1.74911L0.135339 6.64554C0.126407 6.91998 0.173915 7.19334 0.274921 7.44868C0.375927 7.70402 0.528281 7.9359 0.722546 8.12997L6.31013 13.7194C6.49668 13.9058 6.71818 14.0537 6.96195 14.1544C7.20572 14.2552 7.46696 14.3069 7.73073 14.3066ZM4.96065 7.43699C4.58328 7.43879 4.21387 7.32852 3.89924 7.12014C3.58461 6.91176 3.33894 6.61466 3.19336 6.2665C3.04778 5.91833 3.00884 5.53479 3.08149 5.16447C3.15413 4.79416 3.33509 4.45375 3.60142 4.18639C3.86775 3.91903 4.20746 3.73677 4.5775 3.66271C4.94753 3.58864 5.33123 3.6261 5.67995 3.77035C6.02866 3.91459 6.3267 4.15912 6.53629 4.47295C6.74588 4.78677 6.85757 5.15575 6.85721 5.53313C6.85626 6.03651 6.65637 6.5191 6.30111 6.87573C5.94585 7.23236 5.46402 7.4341 4.96065 7.43699Z" fill="#CCCCCC"/>
<path d="M10.5792 1.61461C10.4755 1.51797 10.3383 1.46536 10.1966 1.46786C10.0549 1.47036 9.91965 1.52778 9.81942 1.62801C9.71918 1.72825 9.66177 1.86348 9.65926 2.00521C9.65676 2.14694 9.70937 2.28411 9.80601 2.38782L14.5602 7.14201C14.7127 7.29442 14.8336 7.47537 14.9161 7.67454C14.9986 7.8737 15.0411 8.08716 15.0411 8.30274C15.0411 8.51832 14.9986 8.73179 14.9161 8.93095C14.8336 9.13011 14.7127 9.31107 14.5602 9.46348L11.1974 12.8262C11.1116 12.9309 11.0676 13.0636 11.074 13.1988C11.0803 13.334 11.1365 13.462 11.2318 13.5582C11.327 13.6543 11.4545 13.7118 11.5896 13.7194C11.7248 13.727 11.8579 13.6843 11.9634 13.5995L15.3334 10.2422C15.8462 9.7292 16.1343 9.03355 16.1343 8.30821C16.1343 7.58287 15.8462 6.88723 15.3334 6.37426L10.5792 1.61461Z" fill="#CCCCCC"/>
</svg>
