<svg width="13" height="15" viewBox="0 0 13 15" fill="none" xmlns="http://www.w3.org/2000/svg">
<path d="M6.40273 8.29472C8.56274 8.29472 10.3138 6.54369 10.3138 4.38369C10.3138 2.22369 8.56274 0.472656 6.40273 0.472656C4.24273 0.472656 2.4917 2.22369 2.4917 4.38369C2.4917 6.54369 4.24273 8.29472 6.40273 8.29472Z" fill="#F19B4B"/>
<path d="M9.10455 7.91895C8.54007 8.35111 7.87043 8.65153 7.14064 8.77433L6.40302 11.6826L5.66484 8.77433C4.93561 8.65181 4.26512 8.35111 3.70121 7.91895C1.68192 8.67083 0.291992 10.2375 0.291992 12.0493C0.291992 14.5925 3.02793 14.4716 6.40274 14.4716C9.77755 14.4716 12.5129 14.5925 12.5129 12.0493C12.5132 10.2375 11.1238 8.67083 9.10455 7.91895Z" fill="#F19B4B"/>
</svg>
