<svg width="31" height="22" viewBox="0 0 31 22" fill="none" xmlns="http://www.w3.org/2000/svg">
<path fill-rule="evenodd" clip-rule="evenodd" d="M29.0896 22C30.1446 22 31 21.1911 31 20.1933V1.80671C31 0.808934 30.1446 0 29.0896 0H1.9104C0.85536 0 0 0.808934 0 1.80671V20.1933C0 21.1911 0.85536 22 1.9104 22H29.0896ZM4.36364 3.59375C4.36364 3.9907 4.03803 4.3125 3.63636 4.3125C3.2347 4.3125 2.90909 3.9907 2.90909 3.59375C2.90909 3.1968 3.2347 2.875 3.63636 2.875C4.03803 2.875 4.36364 3.1968 4.36364 3.59375ZM7.27273 3.59375C7.27273 3.9907 6.94712 4.3125 6.54545 4.3125C6.14379 4.3125 5.81818 3.9907 5.81818 3.59375C5.81818 3.1968 6.14379 2.875 6.54545 2.875C6.94712 2.875 7.27273 3.1968 7.27273 3.59375ZM9.45455 4.3125C9.85621 4.3125 10.1818 3.9907 10.1818 3.59375C10.1818 3.1968 9.85621 2.875 9.45455 2.875C9.05288 2.875 8.72727 3.1968 8.72727 3.59375C8.72727 3.9907 9.05288 4.3125 9.45455 4.3125Z" fill="#4A76A8"/>
<path d="M15.5 5C11.91 5 9 7.90996 9 11.5C9 15.09 11.91 18 15.5 18C19.09 18 22 15.0896 22 11.5C22 7.91039 19.09 5 15.5 5ZM15.5 16.8182C12.3589 16.8182 10.1818 14.6411 10.1818 11.5C10.1818 8.35886 12.3589 6.18182 15.5 6.18182C18.6411 6.18182 20.8182 8.35886 20.8182 11.5C20.8182 14.6411 18.6411 16.8182 15.5 16.8182ZM17.9375 10.9091H16.0909V9.13636C16.0909 8.65625 15.7955 8.65625 15.5 8.65625C15.2758 8.65625 14.8952 8.65625 14.9091 9.13636V10.9091H13.0625C12.6562 10.9045 12.6562 11.2758 12.6562 11.5C12.6562 11.7243 12.6562 12.1094 13.0625 12.0909H14.9091V13.9375C14.9091 14.1617 15.1491 14.3438 15.5 14.3438C15.8509 14.3438 16.0909 14.1617 16.0909 13.9375V12.0909H17.8636C18.1591 12.0909 18.3438 11.9686 18.3438 11.5C18.3438 11.1076 18.1591 10.9091 17.9375 10.9091Z" fill="white"/>
</svg>
